<svg width="34" height="34" viewBox="0 0 34 34" fill="none" xmlns="http://www.w3.org/2000/svg">
<g clip-path="url(#clip0_7_8)">
<path d="M29.9671 30L21.0542 20.2622C20.3889 20.7366 19.5974 21.1236 18.6797 21.4232C17.762 21.7228 16.7756 21.8727 15.7202 21.8727C12.9213 21.8727 10.5469 20.8115 8.59682 18.6891C6.64678 16.5668 5.67175 13.9825 5.67175 10.9363C5.67175 7.89014 6.64678 5.30587 8.59682 3.18352C10.5469 1.06117 12.9213 0 15.7202 0C18.5191 0 20.8936 1.06117 22.8436 3.18352C24.7937 5.30587 25.7687 7.89014 25.7687 10.9363C25.7687 12.1099 25.637 13.171 25.3737 14.1198C25.1094 15.0687 24.7478 15.9051 24.289 16.6292L33.2707 26.4419L29.9671 30ZM15.7202 16.779C17.2344 16.779 18.5077 16.2232 19.54 15.1116C20.5724 14.001 21.0886 12.6092 21.0886 10.9363C21.0886 9.28839 20.5724 7.90262 19.54 6.77903C18.5077 5.65543 17.2344 5.09363 15.7202 5.09363C14.1831 5.09363 12.9044 5.65543 11.8839 6.77903C10.8626 7.90262 10.3519 9.28839 10.3519 10.9363C10.3519 12.6092 10.8626 14.001 11.8839 15.1116C12.9044 16.2232 14.1831 16.779 15.7202 16.779Z" fill="white"/>
</g>
<defs>
<clipPath id="clip0_7_8">
<rect width="33.0361" height="34" fill="white" transform="translate(0.66626)"/>
</clipPath>
</defs>
</svg>
