<svg width="666" height="191" viewBox="0 0 666 191" fill="none" xmlns="http://www.w3.org/2000/svg">
<path d="M432.577 0.672514C431.139 1.12322 429.867 1.63832 429.701 1.76709C429.59 1.96026 430.199 4.92206 431.084 8.46335C432.024 11.9403 432.743 14.8377 432.743 14.9021C432.743 14.9664 434.236 14.5801 436.061 14.0006C437.886 13.4212 439.379 12.7129 439.324 12.3266C439.268 10.7169 436.171 0.157417 435.729 0.0286427C435.452 -0.100131 434.07 0.221804 432.577 0.672514Z" fill="white"/>
<path d="M421.129 1.31638C419.249 1.76709 418.032 2.41096 417.922 2.99045C417.867 3.50555 418.42 6.08103 419.194 8.7209C419.968 11.3608 420.576 13.7431 420.576 14.065C420.576 14.3226 409.018 14.5801 394.861 14.5801H369.146V19.7311V24.8821H394.585H420.023V26.7493C420.023 29.7111 417.535 40.335 415.71 44.9064C411.783 55.0796 404.594 64.0938 398.456 66.5405C396.465 67.3132 390.603 69.7599 385.404 71.8846L375.893 75.8123L378.381 80.9632C380.095 84.4401 381.201 86.0498 381.865 86.0498C383.69 86.0498 394.308 81.7359 398.511 79.2892C416.595 68.6653 427.544 48.8341 429.701 22.9504C429.867 20.6325 430.144 17.7995 430.309 16.6405C430.586 14.6445 430.531 14.5801 428.484 14.5801C426.991 14.5801 426.604 14.387 427.157 14.0006C427.876 13.4855 427.766 12.391 426.438 6.91806C425.553 3.31239 424.724 0.479355 424.503 0.479355C424.337 0.543739 422.788 0.865677 421.129 1.31638Z" fill="white"/>
<path d="M207.167 2.41094C205.84 2.73287 204.678 3.05481 204.568 3.18358C204.457 3.31236 205.342 6.5961 206.614 10.5237L208.826 17.6063L211.868 16.6405C213.527 16.1254 214.854 15.3527 214.854 14.9664C214.854 14.6445 214.08 11.4895 213.084 8.01262C211.149 1.18758 211.37 1.44513 207.167 2.41094Z" fill="white"/>
<path d="M355.376 2.41094C354.048 2.73287 352.887 3.05481 352.776 3.18358C352.666 3.31236 353.495 6.5961 354.601 10.5237L356.647 17.6063L359.689 16.6405C361.403 16.1254 362.897 15.5459 363.007 15.4171C363.173 15.2884 362.454 12.1334 361.403 8.46332C359.357 1.18758 359.634 1.44513 355.376 2.41094Z" fill="white"/>
<path d="M521.281 6.85366C518.571 17.7351 513.151 29.3248 507.345 36.7293C505.852 38.6609 504.635 40.5281 504.635 40.9144C504.635 41.3651 505.299 43.5543 506.183 45.8079L507.676 49.9286L511.437 45.6147L515.142 41.3651V65.961V90.6213L519.456 90.4281L523.714 90.235L523.99 56.7537L524.267 23.2724L527.696 13.4212C530.958 3.95625 531.014 3.63431 529.908 3.31237C525.871 2.28218 523.659 1.7027 523.106 1.7027C522.829 1.7027 521.944 4.02063 521.281 6.85366Z" fill="white"/>
<path d="M540.083 6.66051C537.705 16.1898 533.779 24.6245 528.304 32.0934C526.866 34.0894 525.65 35.8922 525.65 36.1498C525.65 36.343 526.756 38.4033 528.028 40.6569L530.461 44.842L536.71 34.5401C542.295 25.3971 543.18 24.2382 544.563 24.2382H546.111V57.3975V90.5569H550.535H554.959V80.255V69.953H567.402H579.845V65.124V60.295H567.402H554.959V53.5343V46.7737H567.402H579.845V41.9446V37.1156H567.402H554.959V30.6769V24.2382H568.232H581.504V19.7311V15.224H564.361C549.595 15.224 547.217 15.0952 547.217 14.2582C547.217 13.7431 547.826 11.4251 548.6 9.04283C549.374 6.72489 549.982 4.40696 549.982 3.95625C549.982 3.1836 548.987 2.86166 543.899 2.02464L541.355 1.57393L540.083 6.66051Z" fill="white"/>
<path d="M196.604 3.11923C195.222 3.44117 193.895 3.95626 193.618 4.2782C193.397 4.53575 194.005 8.01265 195.001 12.0046L196.826 19.216L199.259 18.7653C204.015 17.9283 203.904 18.4434 201.692 9.87988C200.641 5.7591 199.591 2.34659 199.425 2.41097C199.259 2.47536 197.987 2.79729 196.604 3.11923Z" fill="white"/>
<path d="M344.702 3.248C343.32 3.63433 341.993 4.14942 341.771 4.40697C341.495 4.72891 344.481 17.7351 345.145 19.216C345.366 19.5379 351.449 17.9926 351.892 17.4776C352.223 17.1556 348.02 2.34658 347.689 2.41097C347.467 2.47536 346.14 2.79729 344.702 3.248Z" fill="white"/>
<path d="M100.711 8.91407C95.8447 21.9203 87.7706 33.0592 78.3694 39.6267L74.8853 42.0734L77.8163 45.8723C79.4201 47.997 80.7473 49.7999 80.8026 49.9286C80.9132 50.0574 85.7245 44.9065 91.5865 38.4677L102.204 26.8137H116.196C132.344 26.8137 131.127 26.1698 128.915 33.6387C126.537 41.8803 121.394 52.3754 120.233 51.5383C119.901 51.3452 115.753 48.2546 110.997 44.7777C106.241 41.3008 102.26 38.4034 102.038 38.4034C101.873 38.4034 100.379 39.9487 98.7757 41.8803L95.7894 45.3572L105.025 52.3754C110.057 56.1742 114.094 59.5867 114.039 59.973C113.707 61.132 105.191 67.957 100.379 70.8545C94.2962 74.5245 90.7569 76.1342 84.8397 77.8727L80.0284 79.2892L82.6276 83.8607L85.1715 88.4965L89.1532 87.2732C117.91 78.5165 136.049 55.144 141.524 19.8599L141.856 17.7995H124.712C115.256 17.7995 107.569 17.6707 107.569 17.4776C107.569 17.2844 108.453 15.0308 109.56 12.5197C111.827 7.30439 111.827 7.36877 106.905 6.20981C105.08 5.82349 103.255 5.30839 102.923 5.17962C102.481 4.98646 101.651 6.40297 100.711 8.91407Z" fill="white"/>
<path d="M596.436 21.6627V38.4034L624.252 38.2746L652.014 38.0814L652.18 21.4695L652.29 4.92206H624.363H596.436V21.6627ZM643.995 21.3408V29.3892H624.363H604.731V21.3408V13.2924H624.363H643.995V21.3408Z" fill="white"/>
<path d="M258.929 6.01662C258.708 6.20979 258.542 9.68669 258.542 13.7431V21.0188H238.634H218.725V26.1698V31.3208H235.869C245.325 31.3208 253.012 31.4495 253.012 31.6427C253.012 32.5441 248.643 39.8199 245.491 44.1982C239.961 51.9246 232.44 59.9086 223.979 67.0556C221.545 69.116 219.444 70.9188 219.333 70.9832C219.112 71.1764 221.933 76.8424 223.426 79.1604C224.145 80.3193 224.366 80.2549 227.407 77.8082C237.804 69.5023 248.256 57.7195 254.726 46.7737L258.266 40.85L258.542 63.9006L258.819 87.0156L263.409 87.2088L267.944 87.4019V59.3291V31.3208H277.068H286.193V26.1698V21.0188H276.792H267.391V13.2924V5.56592H263.354C261.086 5.56592 259.095 5.75908 258.929 6.01662Z" fill="white"/>
<path d="M488.321 8.27014C488.21 8.72085 487.989 19.9886 487.934 33.2523L487.768 57.3975L486.164 61.4539C485.113 64.0938 483.565 66.5405 481.685 68.5365L478.864 71.5627L465.647 74.5889C458.403 76.2629 452.43 77.7438 452.319 77.8726C452.209 77.937 452.762 80.4481 453.536 83.3455C454.808 88.1102 455.029 88.6252 456.135 88.3033C456.799 88.1102 461.223 87.1443 465.924 86.1142C473.555 84.5045 475.159 83.925 480.579 80.8344C487.934 76.5849 491.031 73.2367 494.128 65.7678C497.612 57.5263 497.999 53.8562 497.999 29.0672V7.4975H493.298C489.98 7.4975 488.487 7.75504 488.321 8.27014Z" fill="white"/>
<path d="M448.227 34.5401V60.2949H452.651H457.075V34.5401V8.78525H452.651H448.227V34.5401Z" fill="white"/>
<path d="M151.865 13.6787C150.925 15.9967 150.151 18.1858 150.151 18.4434C150.151 18.7009 151.921 19.6023 154.022 20.3106C157.064 21.4052 167.239 26.0411 172.05 28.4878C172.603 28.8097 176.53 19.3448 176.087 18.8297C175.7 18.379 154.741 9.42918 154.133 9.42918C153.801 9.42918 152.805 11.3608 151.865 13.6787Z" fill="white"/>
<path d="M300.019 13.9363C299.023 16.383 298.249 18.5078 298.415 18.6365C298.525 18.7653 301.125 19.7955 304.166 20.9545C307.208 22.1134 312.019 24.367 314.895 25.9123C317.77 27.4576 320.148 28.6809 320.204 28.6165C321.089 27.0712 324.351 19.6667 324.351 19.216C324.351 18.7009 303.613 9.42917 302.397 9.42917C302.12 9.42917 301.069 11.4252 300.019 13.9363Z" fill="white"/>
<path d="M7.85971 10.5237C7.6385 10.7169 7.47259 13.228 7.47259 15.9966V21.0188H28.4872C43.8058 21.0188 49.5019 21.212 49.5019 21.7271C49.5019 23.1436 44.6353 34.4113 42.0362 39.176C36.5613 49.0272 26.9388 60.81 18.8094 67.5707C16.708 69.3091 12.3944 72.2065 9.29755 73.945C6.14535 75.6834 3.60147 77.2931 3.60147 77.4863C3.60147 78.2589 8.79983 85.4059 9.35285 85.4059C10.3483 85.4059 18.4223 80.3837 22.0722 77.4863C26.7729 73.8162 35.0128 65.5747 38.3309 61.132L41.1513 57.3975L53.6495 71.8846L66.1477 86.3717L69.7423 81.8646C71.6779 79.4179 73.2816 77.2287 73.2816 77.0356C73.2816 76.778 67.309 70.5325 60.0092 63.128C52.7094 55.7234 46.7368 49.4779 46.7368 49.2847C46.7368 49.0916 48.1193 46.5161 49.7784 43.5543C53.926 36.1498 57.9077 26.5561 60.2857 18.3789C61.3364 14.5801 62.2213 11.1676 62.2213 10.7812C62.2213 10.0086 8.52333 9.68667 7.85971 10.5237Z" fill="white"/>
<path d="M200.807 28.2945C198.429 36.021 193.231 47.7394 189.802 52.8904C182.281 64.2869 171.055 70.5969 153.58 73.2367C150.593 73.6874 148.492 74.2669 148.492 74.7176C148.492 75.104 148.879 77.5507 149.432 80.0618C150.317 84.6976 150.372 84.762 152.142 84.762C155.128 84.762 165.304 82.2509 170.557 80.2549C176.696 77.937 184.217 73.5587 188.641 69.7598C194.061 65.124 200.476 55.0796 205.453 43.5543C207.665 38.4033 211.536 28.3589 211.536 27.7151C211.536 27.3931 205.287 24.045 203.462 23.3367C202.577 23.0148 202.19 23.6587 200.807 28.2945Z" fill="white"/>
<path d="M350.62 23.7231C345.643 40.3993 338.674 54.0494 331.651 60.6812C325.181 66.8624 315.89 70.8544 303.337 72.9148C299.853 73.4943 296.866 74.0738 296.811 74.2025C296.701 74.2669 297.032 76.7136 297.53 79.5467L298.525 84.762H300.461C301.512 84.762 305.438 84.0538 309.143 83.1523C330.877 78.0658 343.652 66.798 353.329 44.3269C355.652 38.9828 359.191 29.0028 359.191 27.8438C359.191 27.2643 356.039 25.3327 351.339 23.0792C351.117 22.9504 350.786 23.208 350.62 23.7231Z" fill="white"/>
<path d="M145.229 35.0552C144.289 37.6951 143.57 39.9486 143.681 40.0774C143.736 40.1418 148.824 42.5241 155.018 45.3572L166.244 50.5081L166.797 48.8341C167.073 47.8682 167.848 45.5503 168.511 43.6831C169.119 41.8159 169.562 40.2062 169.451 40.0774C169.175 39.7555 154.077 33.0592 149.764 31.3208L146.943 30.1618L145.229 35.0552Z" fill="white"/>
<path d="M293.438 34.5401C292.498 37.0512 291.723 39.3048 291.723 39.6267C291.723 39.9486 296.7 42.5241 302.839 45.3572L313.955 50.5725L315.835 45.7435C316.886 43.1036 317.715 40.5925 317.715 40.2706C317.715 39.3048 310.249 35.4415 303.724 32.9948C294.488 29.5179 295.429 29.3892 293.438 34.5401Z" fill="white"/>
<path d="M589.246 68.3433V90.5569H592.841H596.436V88.3033V86.0498H604.731H613.026V87.9814V89.913H616.621H620.215V68.0214V46.1298H604.731H589.246V68.3433ZM612.916 65.8966L613.026 77.0356H604.731H596.436V65.7679V54.4357L604.62 54.6289L612.75 54.822L612.916 65.8966Z" fill="white"/>
<path d="M626.409 68.1502L626.575 90.235L630.612 90.4281L634.594 90.6213V88.3033V86.0498H643.166H651.737V88.3033V90.5569H655.608H659.48V68.3433V46.1298H642.889H626.299L626.409 68.1502ZM651.627 65.8966L651.737 77.0356H643.166H634.594V65.7679V54.4357L643.055 54.6289L651.461 54.8221L651.627 65.8966Z" fill="white"/>
<path d="M0.283356 103.434C0.283356 103.885 111.44 104.078 332.647 104.078C553.853 104.078 665.01 103.885 665.01 103.434C665.01 102.984 553.853 102.79 332.647 102.79C111.44 102.79 0.283356 102.984 0.283356 103.434Z" fill="white"/>
<path d="M97.8909 121.398C92.6925 123.008 87.1623 128.867 86.0563 133.954C85.1162 138.268 85.2821 140.199 86.8858 143.934C88.8214 148.441 92.3054 151.531 100.601 156.232C107.79 160.224 111.053 163.379 111.993 167.113C112.38 168.787 112.214 170.139 110.997 174.131L109.504 179.089L105.467 181.021L101.43 182.888L97.4485 181.343L93.4667 179.733L92.0842 175.226C90.5357 170.268 90.8123 170.461 85.8351 171.749C83.2359 172.457 83.1806 172.522 83.5124 174.518C86.001 189.005 100.711 195.508 112.048 187.073C114.537 185.27 114.758 184.82 117.246 177.158C119.846 169.238 119.901 169.045 119.237 165.632C117.965 159.129 113.652 154.171 105.91 150.373C97.1166 146.059 94.1857 143.612 93.3008 139.749C92.3054 135.306 94.1857 132.344 99.4393 130.155C102.757 128.738 103.476 128.61 105.633 129.254C106.96 129.64 109.062 130.992 110.278 132.215L112.546 134.469L115.311 132.602L118.076 130.734L116.859 128.738C114.979 125.841 112.38 123.523 109.67 122.364C106.905 121.205 100.269 120.626 97.8909 121.398Z" fill="white"/>
<path d="M303.392 121.527C294.267 123.33 283.483 134.533 280.608 145.157C279.059 151.081 279.059 160.739 280.608 166.598C283.594 177.737 292.442 187.331 302.286 190.035C312.461 192.804 323.079 189.52 330.6 181.407C337.015 174.324 339.836 166.598 339.836 155.91C339.836 145.672 337.458 139.169 331.043 131.7C323.301 122.622 314.452 119.402 303.392 121.527ZM313.18 129.189C320.535 130.412 326.674 135.306 329.771 142.517C332.647 149.214 333.365 156.103 331.762 162.992C330.158 170.397 325.623 176.707 319.374 180.248C316.001 182.18 315.503 182.308 309.42 182.308C303.503 182.308 302.839 182.18 300.074 180.441C290.728 174.711 285.53 162.992 287.189 151.403C287.963 145.801 290.507 139.813 293.548 136.272C296.977 132.215 303.337 129.06 308.867 128.61C309.309 128.61 311.245 128.867 313.18 129.189Z" fill="white"/>
<path d="M389.663 121.527C385.736 122.3 379.487 125.905 376.169 129.189C372.74 132.666 369.035 138.847 367.487 143.676C365.938 148.377 365.385 158.099 366.325 163.379C367.487 169.753 370.307 175.548 374.786 180.763C379.432 186.172 382.916 188.618 388.004 190.035C400.612 193.447 413.442 187.009 419.138 174.325C421.295 169.431 422.014 166.662 422.512 160.546L422.899 156.232H410.898H398.953L399.119 159.58L399.285 162.992L406.861 163.186L414.493 163.379L411.341 170.654L408.244 177.93L401.552 180.956C395.856 183.596 394.474 183.983 392.372 183.661C385.847 182.63 378.16 175.355 374.676 166.856C371.8 159.773 371.8 151.531 374.786 144.191C376.501 139.942 382.473 132.795 385.957 130.799C394.474 125.97 404.483 127.901 411.23 135.757L413.94 138.912L415.489 137.688C416.318 136.98 417.424 135.821 417.977 135.113C418.973 133.825 418.973 133.761 416.595 131.056C413.276 127.258 409.239 124.296 405.368 122.75C401.497 121.205 393.976 120.626 389.663 121.527Z" fill="white"/>
<path d="M121.947 125.97V129.769L129.026 129.962L136.049 130.155L136.215 159.902L136.326 189.713H139.92H143.515V159.773V129.833H150.427H157.34V125.97V122.107H139.644H121.947V125.97Z" fill="white"/>
<path d="M161.875 147.346C162.041 171.942 162.096 172.779 163.313 176.256C167.239 187.653 178.023 193.383 189.139 190.035C195.554 188.103 200.199 183.21 202.798 175.612C204.015 172.135 204.07 171.234 204.236 147.024L204.402 122.107H200.863H197.268L197.047 145.415C196.77 172.2 196.549 173.681 192.401 178.574C189.526 181.922 186.927 182.824 181.562 182.566C176.419 182.244 173.765 180.441 171.608 175.805C169.341 170.976 168.954 166.147 168.954 143.161V122.107H165.304H161.709L161.875 147.346Z" fill="white"/>
<path d="M213.748 155.974V189.906L223.592 189.52C237.251 189.005 242.947 186.944 249.196 180.248C255.556 173.359 258.045 166.534 258.155 155.91C258.321 142.002 253.455 132.409 243.334 126.549C237.638 123.266 232.329 122.171 221.933 122.107H213.748V155.974ZM234.873 131.507C241.841 133.567 246.376 137.624 248.92 144.191C251.077 149.793 251.464 158.614 249.749 165.117C247.095 175.419 239.74 180.506 226.08 181.665L220.937 182.115V155.91V129.64L226.191 130.026C229.066 130.284 232.993 130.928 234.873 131.507Z" fill="white"/>
<path d="M265.178 155.91V189.713H268.773H272.368V155.91V122.107H268.773H265.178V155.91Z" fill="white"/>
<path d="M428.872 155.91V189.713H432.466H436.061V173.294V156.876H449.886H463.712L463.822 173.101L463.988 189.391L467.472 189.584L470.901 189.777V155.91V122.107H467.306H463.712V135.628V149.149H449.886H436.061V135.628V122.107H432.466H428.872V155.91Z" fill="white"/>
<path d="M480.855 155.91V189.713H484.45H488.044V155.91V122.107H484.45H480.855V155.91Z" fill="white"/>
<path d="M498.552 155.845V189.713H505.133C510.552 189.713 513.096 189.327 519.124 187.717C527.309 185.528 529.023 184.304 531.069 179.154C533.06 174.324 533.06 171.942 531.18 165.954C530.24 162.992 529.244 159.966 528.912 159.322C528.193 157.777 523.548 154.3 522.221 154.3C520.783 154.3 521.004 153.463 522.829 151.853C526.921 148.376 528.138 138.461 525.318 131.829C522.442 125.133 517.741 122.815 506.183 122.3L498.552 121.913V155.845ZM515.142 131.314C516.525 132.087 518.184 133.761 518.903 134.984C520.009 136.916 520.175 137.881 520.009 141.23C519.622 148.119 516.691 151.081 509.833 151.596L505.741 151.918V140.972C505.741 134.984 505.907 129.897 506.073 129.64C506.736 128.867 512.764 130.026 515.142 131.314ZM519.843 160.546C523.825 162.992 524.765 164.731 524.986 169.946C525.152 173.938 525.041 174.904 523.88 176.836C523.161 178.123 521.447 179.733 519.953 180.634C517.686 181.922 516.414 182.18 511.658 182.244L506.017 182.308L505.851 170.461L505.741 158.678L511.658 158.936C516.359 159.129 518.128 159.515 519.843 160.546Z" fill="white"/>
<path d="M540.581 155.91V189.713H553.024H565.467V185.85V181.987L556.508 181.858L547.494 181.665L547.328 151.853L547.217 122.107H543.899H540.581V155.91Z" fill="white"/>
<path d="M569.448 155.717L569.614 189.391L573.375 189.584L577.08 189.777V155.91V122.107H573.209H569.338L569.448 155.717Z" fill="white"/>
</svg>
