<svg width="887" height="941" viewBox="0 0 887 941" fill="none" xmlns="http://www.w3.org/2000/svg">
<path d="M667.295 9.63971C663.635 14.6128 660.28 18.9642 659.823 19.4304C659.365 19.8966 651.893 30.7752 643.353 43.8295C634.813 56.8837 627.188 67.9177 626.425 68.3839C625.51 68.8502 624.9 70.4043 624.9 71.6475C624.9 72.8908 622.308 78.0192 619.258 82.8369C616.055 87.6545 612.7 94.4925 611.785 97.9115C607.21 113.297 602.025 126.973 599.128 131.169C597.298 133.655 595.925 136.142 595.925 136.763C595.925 137.541 593.18 142.358 589.825 147.797C586.47 153.237 582.963 160.852 581.895 164.582C580.218 170.798 580.37 171.886 582.963 174.838C586.47 178.724 588.91 178.879 586.775 174.994C586.013 173.284 585.25 170.487 585.25 168.622C585.25 165.048 593.485 147.642 599.433 138.784C604.16 131.79 609.65 119.513 609.65 115.783C609.65 114.385 610.108 112.675 610.565 112.209C611.785 110.966 618.648 94.3371 619.563 90.7627C619.868 89.5194 622.918 84.2355 626.273 79.2625C629.78 74.2894 632.525 69.6272 632.525 68.8502C632.525 68.0731 635.118 63.8771 638.473 59.3703C641.675 54.8634 645.488 49.1133 646.86 46.6268C648.233 43.9849 652.503 37.7686 656.315 32.6401C659.975 27.5116 665.465 19.7412 668.21 15.3898C671.108 10.883 674.158 6.84236 675.073 6.22073C683.155 1.24768 690.018 20.8291 692 55.1743C692.61 67.6069 693.678 79.4179 694.288 81.5936C697.338 93.8708 697.49 144.068 694.288 184.008C692.61 205.765 687.73 209.805 659.213 212.913C649.3 214.157 647.47 215.555 648.69 220.995C649.3 223.015 648.843 226.589 648.08 229.231C646.403 233.893 646.403 233.893 652.198 233.893C655.4 233.893 663.483 234.671 670.345 235.603C677.208 236.535 683.613 237.002 684.68 236.535C688.188 235.292 677.97 232.029 665.008 230.319C653.265 228.92 650.368 227.522 653.723 225.501C654.485 225.035 661.348 224.569 668.973 224.414C678.58 224.258 682.545 223.637 681.478 222.549C680.563 221.616 674.005 220.995 666.838 220.995C655.553 220.995 653.723 220.684 654.18 218.508C654.638 216.643 657.23 215.866 666.228 215.089C688.493 213.224 693.83 209.339 697.338 192.555C700.54 177.791 702.218 107.702 699.778 93.0938C698.71 87.1883 697.033 70.4043 695.813 55.9513C693.373 24.0927 690.17 9.17349 684.985 4.20042C678.58 -1.54967 674.615 -0.306396 667.295 9.63971Z" fill="black"/>
<path d="M523.183 27.5117C515.253 36.2145 499.698 57.0392 498.173 61.0798C497.41 63.2555 494.36 68.8502 491.463 73.6678C488.718 78.4855 485.21 86.2559 483.685 90.9182C482.312 95.5804 480.635 100.864 480.025 102.574C479.415 104.283 477.738 109.878 476.213 115.006C474.84 120.135 473.01 125.73 472.4 127.439C467.215 140.493 464.47 151.372 465.233 154.946C465.842 157.122 469.045 161.94 472.4 165.514C475.755 169.088 478.5 172.663 478.5 173.595C478.5 175.771 469.35 173.44 464.318 169.865C459.133 165.98 456.54 167.69 461.573 171.575L465.233 174.372L461.573 175.616C458.523 176.548 459.133 177.014 465.538 177.947C469.808 178.568 474.688 179.501 476.518 180.122C478.958 180.899 480.33 180.433 481.55 178.102C483.533 174.061 480.635 167.69 474.84 163.338C468.435 158.676 467.215 151.838 471.028 142.824C474.688 134.277 476.06 129.77 479.415 117.338C484.905 96.8237 494.665 73.8232 505.645 56.573C509.458 50.5121 517.235 40.566 518.608 39.9443C519.218 39.6335 519.675 38.5457 519.675 37.4578C519.675 35.5929 528.825 25.6468 530.655 25.6468C532.638 25.6468 535.23 35.4375 535.688 44.6066C535.993 50.0458 536.908 67.2961 537.975 83.1478C542.55 159.453 542.398 153.237 539.195 159.919C535.535 167.534 531.723 170.643 521.963 174.061C512.813 177.48 511.898 178.724 512.965 185.095C513.575 188.359 512.813 192.555 510.83 197.217L507.628 204.211L493.903 203.9C481.398 203.589 480.025 203.278 480.025 200.636C480.025 199.082 478.805 196.751 477.433 195.663C474.84 193.643 474.84 193.643 477.433 193.487C479.415 193.487 480.025 192.089 480.025 187.893C480.025 183.386 479.568 182.453 477.585 183.231C476.213 183.697 473.467 184.163 471.485 184.163C469.503 184.163 467.825 184.785 467.825 185.717C467.825 186.494 469.35 187.271 471.333 187.271C473.315 187.271 475.45 187.737 475.908 188.359C477.28 189.758 468.435 195.042 464.775 195.042C463.098 195.042 461.725 195.663 461.725 196.596C461.725 197.373 465.233 198.15 469.35 198.15C482.618 198.15 476.823 204.988 462.335 206.386C457.303 207.008 451.965 207.785 450.592 208.407C448.61 209.184 448 208.407 448 205.299C448 201.88 447.238 201.102 441.9 200.325C437.63 199.548 435.648 198.461 434.885 195.974C433.208 190.535 423.448 176.082 417.805 171.109C414.908 168.622 412.01 165.048 411.247 163.338C410.485 161.473 409.265 158.987 408.35 157.744C407.587 156.5 405.605 152.304 403.927 148.419C400.878 141.115 400.268 140.493 387.61 130.703L379.832 124.797L378.765 113.297C378.307 106.925 376.935 100.087 375.562 98.2224C373.58 95.1141 367.023 78.1747 364.583 70.2489C363.515 66.8299 362.295 66.9853 359.397 71.1813C356.195 75.6882 354.518 82.2153 354.212 92.006C353.602 103.972 352.23 104.749 347.197 96.202C344.757 92.006 342.775 87.4991 342.775 86.1005C342.775 84.8572 341.708 82.3707 340.488 80.6612C337.132 76.1544 335.912 79.418 333.777 97.7561C332.253 109.723 332.253 118.115 333.625 132.568C335.15 150.439 335.15 151.683 332.253 155.723C328.592 161.007 326.152 174.839 326.152 189.913C326.305 196.129 325.847 201.88 325.39 202.657C324.78 203.589 324.322 210.427 324.322 217.887C324.17 227.988 325.085 234.049 327.372 241.353C329.202 246.792 330.27 251.766 329.812 252.543C329.355 253.32 327.067 254.874 324.628 256.117C320.51 258.137 320.51 258.137 321.12 254.563C321.425 252.543 320.967 250.988 320.052 250.988C319.137 250.988 318.375 251.61 318.375 252.387C318.375 253.164 314.562 258.448 309.987 264.198C299.922 276.631 289.857 292.172 282.537 306.625C279.64 312.375 275.522 319.834 273.54 323.409C270.033 329.625 265 348.274 265 355.578C265 360.862 255.85 367.7 246.242 369.409C242.125 370.186 233.432 373.45 227.18 376.558C217.877 381.22 215.285 383.241 213.607 387.592C212.387 390.545 211.625 395.363 212.082 398.004C212.692 401.268 211.625 406.241 209.337 412.147L205.677 421.16H197.747C193.325 421.16 189.512 421.937 189.207 422.714C188.902 423.647 192.105 425.822 196.07 427.532C203.237 430.64 206.44 435.147 204.152 438.566C203.695 439.498 198.052 441.674 191.8 443.539C178.532 447.58 167.4 452.708 167.4 454.728C167.4 456.904 177.77 456.438 182.345 453.951C184.632 452.863 189.665 451.309 193.782 450.843C200.645 449.755 200.95 449.911 200.95 453.641C200.95 460.168 198.357 464.985 194.24 466.073C188.902 467.472 189.207 470.114 194.545 470.114C198.51 470.114 199.12 470.891 201.712 479.749C203.39 485.188 204.915 490.317 205.22 491.249C205.372 492.182 202.627 493.736 198.815 494.824C186.005 498.087 183.565 499.33 185.852 502.128C187.53 504.148 187.072 505.081 183.412 508.033C181.125 509.898 179.6 512.385 180.21 513.317C181.582 515.648 174.262 526.371 169.535 528.858C167.095 530.101 166.027 531.811 166.485 533.209C166.942 534.453 166.79 535.385 166.027 535.385C162.977 535.385 151.845 544.71 145.287 552.791C141.475 557.608 134.612 564.136 130.037 567.244C123.022 572.217 118.447 577.345 121.04 577.345C123.48 577.345 135.222 568.021 143.915 559.473C149.405 553.879 154.437 549.683 155.2 550.149C155.962 550.615 158.25 549.993 160.08 548.75C162.062 547.662 165.265 546.108 167.4 545.487C169.535 544.865 172.89 543 174.872 541.446C176.855 539.737 180.057 538.493 182.04 538.493C184.022 538.493 185.7 538.027 185.7 537.25C185.7 535.23 197.595 532.277 209.795 531.189C220.622 530.257 221.385 530.412 219.402 532.899C216.657 536.318 218.182 537.716 222.147 535.385C224.282 534.297 226.265 534.297 228.095 535.23C229.467 536.007 235.11 537.872 240.6 539.27C246.09 540.824 251.732 543.311 253.257 545.02C254.783 546.574 257.375 547.818 258.9 547.818C264.848 547.818 281.775 556.054 288.79 562.271C294.89 567.71 295.5 568.798 293.06 569.73C290.467 570.663 290.772 571.129 295.042 573.615C297.787 575.325 300.075 577.656 300.075 579.055C300.075 580.453 303.125 582.474 307.852 584.183C312.732 586.048 314.867 587.602 313.8 588.224C310.902 590.089 313.19 592.42 318.832 593.508C321.577 593.974 324.78 595.994 326 597.859C327.22 599.569 330.117 603.454 332.557 606.096C334.845 608.893 336.675 612.001 336.675 612.778C336.675 613.711 340.488 618.839 345.062 624.123C353.298 633.448 365.65 655.826 365.65 661.266C365.65 662.664 370.225 673.543 375.715 685.198L385.78 706.489L384.56 734.307C383.645 761.038 383.645 762.125 386.848 766.632C388.525 769.274 390.05 772.072 390.05 773.159C390.05 774.092 390.812 774.403 391.575 773.936C392.49 773.47 393.1 770.673 392.948 768.031C392.948 765.234 392.49 763.99 392.033 765.234C391.575 766.477 390.355 765.078 389.135 761.504C387.763 757.152 387.457 749.227 388.068 730.733C388.83 709.753 388.677 705.246 386.543 701.05C379.68 687.374 370.225 665.928 370.225 664.063C370.225 659.556 359.702 634.846 357.872 634.846C357.262 634.846 356.348 633.603 355.738 632.049C355.28 630.65 351.467 625.677 347.35 621.015C343.08 616.508 339.725 612.001 339.725 611.224C339.725 608.893 325.39 591.643 322.645 590.555C321.12 590.089 319.9 588.535 319.9 587.291C319.9 585.893 316.697 583.562 312.427 581.697C307.7 579.832 304.04 577.034 302.82 574.393C297.94 564.446 292.755 558.696 284.825 554.345C275.065 548.906 264.238 544.71 259.357 544.71C257.375 544.71 255.087 543.311 254.02 541.601C252.952 539.892 250.97 538.493 249.75 538.493C248.53 538.493 243.345 537.095 238.465 535.385C233.432 533.676 227.637 532.277 225.502 532.122C221.995 532.122 221.842 531.966 224.587 530.723C230.84 528.236 218.945 526.993 204 528.703C191.8 530.101 187.225 531.5 175.787 537.095C168.162 540.824 161.605 544.088 160.995 544.399C160.232 544.71 159.775 544.399 159.775 543.622C159.775 542.845 162.977 540.514 166.942 538.493C172.585 535.696 173.5 534.608 171.365 533.831C169.23 533.054 170.145 531.966 176.397 528.081C181.582 524.662 183.87 522.331 183.26 520.777C182.802 519.378 184.175 517.202 186.92 515.182C189.512 513.162 191.19 510.831 190.885 509.743C190.427 508.655 192.257 506.945 194.697 505.858C200.492 503.371 200.797 501.195 195.307 501.04C191.8 500.885 192.41 500.418 198.357 498.398C204.457 496.378 206.287 496.222 208.88 497.932C213.76 501.04 214.065 498.553 209.795 489.851C203.085 476.175 202.017 470.735 204 458.458C204.915 452.397 206.287 442.296 206.745 435.924C207.965 422.87 214.98 405.153 219.097 404.842C220.47 404.842 225.502 404.687 230.382 404.532C235.11 404.376 239.075 403.755 239.075 403.133C239.075 402.511 236.635 400.491 233.585 398.626L228.247 395.207L223.825 399.403C219.097 404.065 218.945 404.065 217.115 392.099C216.2 387.281 216.657 386.038 220.165 383.241C225.045 379.355 227.79 379.045 229.01 382.308C229.467 383.551 231.145 384.639 232.67 384.639C236.787 384.639 241.972 391.011 244.412 398.781C245.937 403.91 246.7 404.998 247.462 402.978C248.987 399.248 241.667 387.126 236.025 383.551C233.432 382.153 231.45 380.443 231.45 379.977C231.45 378.889 236.94 375.47 241.82 373.605L245.937 372.207L242.43 375.004C238.007 378.578 239.685 380.443 245.022 377.801C250.512 375.004 257.832 373.295 256.765 375.159C256.155 375.936 253.715 377.024 251.275 377.646C245.785 378.889 245.022 382.153 250.512 381.22C252.647 380.754 254.325 380.91 254.325 381.376C254.325 381.842 257.985 382.308 262.56 382.464C267.135 382.464 270.49 381.842 270.185 381.22C269.727 380.599 268.05 379.977 266.525 379.977C264.542 379.977 263.932 379.2 264.39 377.646C265 376.092 264.39 375.315 262.102 375.315C260.272 375.315 258.9 374.538 258.9 373.761C258.9 372.828 257.68 372.207 256.307 372.051C253.867 372.051 253.867 371.896 256.46 370.186C265 364.592 268.05 361.017 268.05 355.889C268.05 349.206 274.912 325.118 277.047 324.341C277.962 324.03 278.725 322.787 278.725 321.544C278.725 320.3 281.47 314.395 284.825 308.334C288.18 302.273 290.925 296.989 290.925 296.678C290.925 295.591 309.225 269.793 310.75 268.86C311.665 268.394 312.275 268.705 312.275 269.482C312.275 270.414 311.665 271.191 310.902 271.191C310.14 271.191 309.225 272.59 308.767 274.3C307.7 278.651 309.987 278.185 313.647 273.056C322.95 260.779 324.475 259.536 324.475 264.509C324.628 266.529 326.457 265.131 330.575 260.313C336.37 253.63 336.675 253.475 337.59 256.739C338.048 258.759 339.42 260.313 340.64 260.313C344.147 260.313 350.095 257.516 352.992 254.407C354.518 252.853 357.568 250.211 360.007 248.657C363.667 246.326 364.125 246.171 363.21 248.502C362.753 249.901 362.753 250.988 363.21 250.988C364.887 250.988 370.682 247.259 374.648 243.684C377.24 241.353 379.07 240.732 380.138 241.664C381.358 242.752 383.188 242.13 385.628 239.954C387.61 238.09 391.423 234.981 393.863 232.961C396.608 230.785 397.522 229.231 396.15 229.231C394.93 229.231 392.185 230.63 390.05 232.339C387.915 234.049 385.018 235.448 383.492 235.448C381.967 235.448 377.85 236.846 374.495 238.556C370.988 240.265 367.327 241.664 366.413 241.664C364.735 241.664 352.077 250.833 347.655 255.184C346.587 256.272 345.062 257.205 344.452 257.205C341.86 257.205 332.1 245.083 332.1 241.819C332.1 239.954 331.033 237.313 329.812 236.069C328.287 234.36 327.525 230.008 327.372 221.772C327.22 215.245 327.372 209.028 327.525 208.251C327.677 207.319 328.287 203.589 328.592 199.704C329.05 195.819 330.727 191.312 332.253 189.602C336.217 185.095 337.59 174.528 334.54 171.264C330.88 167.534 331.643 161.784 336.827 153.703C339.725 149.507 341.098 146.088 340.182 145.466C335.912 142.669 334.082 101.486 337.742 91.2289C338.962 87.9654 339.725 88.7424 344.91 99.1548C350.4 110.033 350.857 111.432 349.79 119.979C349.18 124.953 348.417 133.189 348.113 138.318L347.35 147.642L349.637 138.318C350.857 133.189 352.535 123.709 353.45 117.338C358.33 80.6612 360.923 69.938 363.363 77.8639C363.973 79.418 365.04 82.2153 365.955 83.7694C370.225 91.8506 374.495 106.77 375.562 116.716C376.478 126.507 377.087 128.216 380.9 131.169C383.34 132.878 386.237 134.432 387.457 134.432C391.728 134.432 400.115 145 403.622 154.48C405.91 160.852 409.265 166.446 414.45 171.73C422.837 180.433 430.462 191.156 432.75 197.217C433.665 199.704 435.8 201.569 438.393 202.19C447.238 204.055 447.238 204.211 441.747 209.961C435.8 216.332 428.785 220.529 425.888 219.285C423.905 218.508 416.28 220.529 411.095 223.17C408.96 224.258 408.35 223.947 408.35 221.927C408.198 220.062 407.435 220.684 405.758 223.792C404.538 226.279 402.402 229.698 401.03 231.252C397.522 235.292 400.268 236.536 404.233 232.65C406.215 230.785 408.807 229.231 410.027 229.231C411.247 229.231 415.212 227.056 418.72 224.414C422.38 221.616 424.82 220.684 424.21 221.927C423.6 223.792 424.21 224.103 426.497 223.481C428.328 223.015 430.158 222.083 430.615 221.306C431.073 220.529 434.275 219.907 437.783 219.907C445.56 219.907 451.05 218.508 451.05 216.643C451.05 215.866 448.763 215.245 446.17 215.089C441.29 215.089 441.138 215.089 444.95 213.38C455.625 208.873 468.435 207.319 496.038 206.853C521.2 206.542 527.148 206.853 541.94 209.961C552.005 212.136 561.918 215.245 566.188 217.731C570.305 219.907 578.083 223.481 583.573 225.346C589.063 227.366 593.028 229.076 592.113 229.231C591.35 229.387 586.013 229.542 580.37 229.698C574.423 230.008 569.238 230.941 568.17 232.184C566.493 233.738 567.56 234.049 573.813 233.894C586.775 233.427 590.588 233.738 588.91 235.292C588.148 236.069 585.555 237.157 582.963 237.468C580.523 237.934 582.505 238.09 587.385 237.934L596.535 237.779L598.518 226.9C599.89 219.596 600.043 214.623 599.128 211.826C598.213 209.184 598.213 207.163 599.128 206.697C601.415 205.143 600.653 199.859 596.993 193.798C595.163 190.69 592.57 186.183 591.503 183.697C589.52 179.812 586.775 177.947 586.775 180.744C586.775 181.366 588.453 185.095 590.588 189.136C593.943 195.663 594.4 201.258 591.503 201.258C590.893 201.258 589.368 199.548 588.3 197.373C585.86 192.866 571.525 183.075 571.678 186.183C571.678 187.116 575.033 190.535 578.998 193.798C583.115 196.906 587.995 201.724 589.825 204.677L593.485 209.805L589.673 206.231C587.538 204.366 585.098 202.812 584.335 202.812C583.573 202.812 580.37 201.102 577.32 198.927C571.068 194.575 562.223 193.332 565.273 197.217C566.34 198.461 569.238 200.015 571.678 200.481C574.118 201.102 576.405 202.19 577.015 202.967C577.473 203.744 580.065 205.299 582.658 206.542C585.403 207.63 588.91 210.116 590.435 211.981L593.333 215.245L586.775 212.914C583.268 211.67 578.54 210.582 576.253 210.582C573.355 210.738 575.033 211.981 583.115 215.866C589.063 218.664 594.4 221.772 595.01 222.704C596.383 224.88 585.555 223.326 581.438 220.684C579.76 219.751 576.405 218.353 573.813 217.731C571.373 217.109 568.17 215.711 566.95 214.623C564.358 212.447 548.65 208.096 537.67 206.697C533.705 206.231 530.045 204.988 529.435 204.211C528.978 203.278 526.69 203.123 524.403 203.589C521.505 204.211 519.523 203.744 518.15 202.035C516.473 200.015 517.083 199.704 523.64 199.704C527.758 199.704 532.18 198.927 533.4 197.994C535.078 196.751 534.315 196.596 529.893 197.217C524.098 197.994 514.185 195.042 516.168 193.021C516.625 192.4 520.59 191.933 524.86 191.778C531.113 191.778 531.875 191.467 529.13 190.379C527.3 189.602 524.555 189.447 523.183 189.913C521.505 190.535 521.048 190.379 521.81 189.136C522.42 188.048 525.623 187.271 528.978 187.271C532.333 187.271 534.925 186.494 534.925 185.562C534.925 184.474 532.028 184.008 526.69 184.474C522.115 184.785 518.608 184.629 519.065 183.852C519.523 183.231 522.42 182.609 525.47 182.609C535.23 182.609 536.908 179.501 527.3 179.345C521.963 179.19 519.98 178.724 521.963 178.102C541.94 170.953 546.058 163.96 544.99 139.095C544.075 116.871 538.89 44.4512 537.365 32.9509C536.755 28.2887 532.485 22.5386 529.588 22.5386C528.673 22.5386 525.775 24.8698 523.183 27.5117ZM332.405 175.149C329.965 177.636 330.117 182.143 332.557 183.075C333.93 183.541 333.93 184.163 332.557 185.717C330.575 187.893 327.525 186.494 327.525 183.386C327.525 179.501 330.423 173.284 332.405 173.284C333.777 173.284 333.777 173.751 332.405 175.149ZM514.338 201.258C513.88 202.035 512.813 202.812 511.898 202.812C511.135 202.812 510.525 202.035 510.525 201.258C510.525 200.325 511.593 199.704 512.965 199.704C514.185 199.704 514.795 200.325 514.338 201.258ZM202.475 445.248C202.475 446.026 201.102 446.803 199.272 446.803C197.595 446.803 196.68 446.026 197.137 445.248C197.595 444.316 199.12 443.694 200.34 443.694C201.56 443.694 202.475 444.316 202.475 445.248ZM192.257 447.89C191.19 448.201 189.36 448.201 188.445 447.89C187.377 447.424 188.14 447.113 190.275 447.113C192.41 447.113 193.172 447.424 192.257 447.89Z" fill="black"/>
<path d="M348.265 167.224C345.215 169.71 344.3 171.73 344.3 176.548C344.3 188.204 356.195 193.487 361.532 184.318C365.192 177.791 364.735 173.751 359.702 168.467C354.365 163.028 353.602 163.028 348.265 167.224ZM359.55 171.886C361.99 176.393 361.38 180.278 357.415 184.008C354.365 186.96 353.145 187.271 350.552 185.872C342.012 181.21 347.197 165.203 356.195 168.311C357.262 168.622 358.787 170.332 359.55 171.886Z" fill="black"/>
<path d="M349.333 174.217C348.113 177.48 351.315 180.744 353.603 178.413C355.585 176.393 354.365 171.73 351.925 171.73C351.01 171.73 349.943 172.818 349.333 174.217Z" fill="black"/>
<path d="M646.25 237.779C645.335 238.867 644.42 241.353 644.267 243.063C644.115 244.927 643.657 246.326 643.047 246.326C642.437 246.326 641.675 248.036 641.37 250.211C640.912 252.387 641.217 254.096 642.285 254.096C643.2 254.096 645.64 254.563 647.775 255.184L651.587 256.117L647.927 251.921C645.792 249.745 644.877 247.88 645.792 247.88C646.555 247.88 648.537 249.279 650.062 250.988C652.197 253.475 672.48 264.353 682.087 268.239C690.78 271.813 714.875 289.374 706.945 286.266C701.912 284.401 704.2 287.509 716.552 299.165C724.94 307.091 727.99 310.976 726.617 311.597C724.94 312.219 727.075 315.483 734.09 323.253C739.885 329.625 743.545 335.064 743.087 336.307C742.63 337.551 743.85 340.348 745.985 342.524C749.645 346.564 753 351.848 759.252 363.659C761.082 367.078 764.59 372.984 767.182 376.713C770.995 382.308 771.3 383.396 768.86 382.464C767.335 381.686 764.59 380.909 762.912 380.443C760.167 379.822 760.015 379.977 762.455 381.997C768.097 386.66 796.462 452.086 801.952 473.222C805.612 486.587 807.747 511.608 805.307 510.054C804.392 509.432 803.172 507.101 802.715 504.77C800.275 494.357 795.7 487.519 795.7 494.357C795.7 499.33 803.935 520.932 810.34 532.899C814 539.581 817.05 545.487 817.05 545.953C817.05 546.264 819.795 552.325 823.15 559.318C826.657 566.156 828.03 570.196 826.352 568.021C824.675 565.845 822.235 562.737 821.015 561.027C818.727 557.919 818.727 557.919 818.575 561.027C818.575 562.737 821.015 567.865 823.912 572.217C829.86 581.23 830.165 582.318 826.962 581.075C823.455 579.676 824.217 581.697 829.707 588.69C832.605 592.264 835.35 596.46 835.807 597.859C836.417 599.413 837.637 600.656 838.857 600.656C842.365 600.656 840.23 588.379 835.655 583.095C834.282 581.541 833.367 578.278 833.52 575.791C833.672 573.149 831.385 565.845 827.725 558.075C824.37 550.926 821.625 544.554 821.625 543.932C821.625 543.466 819.947 540.669 817.965 538.027C813.39 531.655 812.322 527.304 810.95 506.635C809.272 483.945 807.137 471.512 802.715 460.945C798.445 450.377 791.277 432.194 788.99 425.822C788.075 423.18 786.245 419.295 784.872 417.12C783.5 414.944 781.212 410.126 779.992 406.241C778.62 402.511 776.18 396.295 774.35 392.565C771.3 386.349 771.3 385.572 773.435 384.328C775.57 383.085 774.96 381.531 769.317 372.984C756.812 353.558 754.22 348.74 754.982 345.787C755.44 343.767 753.915 340.814 750.56 337.24C747.662 334.132 743.545 328.382 741.257 324.341C734.852 313.152 730.735 307.091 725.55 301.807C723.11 299.165 720.975 295.901 720.975 294.503C720.975 288.753 701.912 274.3 681.935 264.975C661.805 255.495 655.095 251.921 656.772 251.299C657.687 250.988 660.737 251.455 663.33 252.387C669.125 254.407 674.92 254.718 672.937 252.698C672.022 251.921 666.837 249.745 661.195 247.88C646.25 242.752 643.047 237.934 656.925 241.508C666.837 244.15 674.005 245.083 673.09 243.529C672.632 242.752 670.65 241.664 668.82 241.198C666.837 240.731 661.347 239.333 656.62 238.089C649.452 236.225 647.622 236.069 646.25 237.779Z" fill="black"/>
<path d="M278.115 344.233C274.15 354.335 273.388 362.261 276.285 363.348C278.878 364.436 280.555 361.639 282.69 352.781C284.215 346.72 281.928 348.274 279.335 355.112C277.963 358.686 276.59 361.173 276.133 360.862C275.828 360.551 276.438 358.22 277.353 355.733C280.86 346.564 282.995 338.017 281.775 338.017C281.165 338.017 279.488 340.814 278.115 344.233Z" fill="black"/>
<path d="M361.228 341.28C354.213 343.456 346.74 349.828 342.775 357.132C338.81 364.125 336.218 382.308 337.59 392.721C338.353 399.248 339.42 400.957 345.978 406.552C353.298 412.768 354.06 413.079 364.583 413.39C383.188 413.856 399.048 408.261 402.708 399.869C403.623 397.383 405.453 395.518 406.52 395.518C407.74 395.518 408.045 394.741 407.435 393.653C406.825 392.721 406.52 388.525 406.673 384.484C406.978 376.247 402.25 360.085 397.37 353.091C390.355 343.145 373.428 337.551 361.228 341.28ZM384.713 346.72C396.608 353.091 400.268 359.929 402.25 379.822C403.47 391.633 403.318 393.498 400.725 398.004C396.608 404.532 385.018 409.505 371.14 410.592C360.923 411.214 359.855 411.059 351.925 406.086C346.74 402.822 343.233 399.558 342.623 397.072C340.03 387.592 338.658 379.977 339.573 379.977C340.183 379.977 340.793 377.801 340.945 375.315C341.555 367.544 345.978 357.754 351.773 351.537C360.77 341.902 372.665 340.193 384.713 346.72Z" fill="black"/>
<path d="M350.553 366.457C343.08 375.626 350.095 398.315 357.873 390.079C360.16 387.437 360.16 387.437 357.72 388.214C356.195 388.835 354.975 388.524 354.975 387.747C354.975 386.97 356.5 386.193 358.483 385.883C361.228 385.572 361.99 384.328 362.295 379.045C362.905 370.186 360.465 364.436 355.89 364.436C353.908 364.436 351.468 365.369 350.553 366.457ZM359.55 377.646C359.55 378.889 358.94 379.977 358.025 379.977C357.263 379.977 356.5 378.889 356.5 377.646C356.5 376.403 357.263 375.315 358.025 375.315C358.94 375.315 359.55 376.403 359.55 377.646Z" fill="black"/>
<path d="M271.557 346.72C270.49 350.294 269.575 355.112 269.727 357.598C269.88 361.173 270.337 360.551 272.015 354.335C274.76 344.544 274.15 337.551 271.557 346.72Z" fill="black"/>
<path d="M286.35 354.801C286.35 355.733 285.435 357.443 284.215 358.531C281.317 361.484 279.335 368.321 281.775 366.767C284.062 365.369 288.332 355.112 287.265 353.869C286.807 353.402 286.35 353.869 286.35 354.801Z" fill="black"/>
<path d="M286.35 363.038C283.605 368.166 285.435 369.565 288.332 364.436C289.857 361.95 290.467 359.774 289.552 359.774C288.637 359.774 287.265 361.173 286.35 363.038Z" fill="black"/>
<path d="M291.23 366.301C290.315 367.234 289.4 369.254 289.4 370.497C289.4 372.518 289.705 372.518 291.84 370.342C293.212 368.943 294.127 367.078 293.822 366.146C293.365 364.747 292.602 364.903 291.23 366.301Z" fill="black"/>
<path d="M293.975 370.653C293.975 371.43 294.585 372.207 295.347 372.207C296.262 372.207 297.33 371.43 297.787 370.653C298.245 369.72 297.635 369.099 296.415 369.099C295.042 369.099 293.975 369.72 293.975 370.653Z" fill="black"/>
<path d="M260.425 386.038C260.425 386.66 262.255 386.97 264.542 386.504C267.745 385.883 268.355 386.193 267.592 388.369C266.83 390.079 267.44 390.856 269.575 390.856C271.557 390.856 272.32 389.923 272.167 387.747C272.015 385.261 270.947 384.639 266.22 384.639C263.017 384.639 260.425 385.261 260.425 386.038Z" fill="black"/>
<path d="M357.72 453.796C357.11 456.282 358.025 458.458 360.16 460.479C362.905 462.81 365.193 463.12 376.325 462.343C390.203 461.566 413.383 462.81 425.888 465.296C441.443 468.404 466.605 472.445 480.025 473.999C482.16 474.31 489.023 475.553 495.275 476.952C501.528 478.35 506.865 479.438 507.018 479.438C507.17 479.438 508.085 478.04 509 476.33C510.373 473.688 510.068 472.911 506.713 471.668C490.548 465.452 426.498 455.661 377.85 452.086C373.275 451.776 367.023 451.154 363.973 450.688C358.94 450.066 358.33 450.377 357.72 453.796ZM392.338 456.282C417.5 458.458 454.405 463.431 465.538 466.229L474.688 468.56L465.538 467.783C460.505 467.472 451.965 466.384 446.475 465.452C417.348 460.634 388.22 457.992 363.668 457.681C361.228 457.681 359.703 457.06 360.313 456.127C361.533 454.107 369.31 454.262 392.338 456.282ZM480.483 469.648C479.415 469.958 477.585 469.958 476.67 469.648C475.603 469.181 476.365 468.871 478.5 468.871C480.635 468.871 481.398 469.181 480.483 469.648ZM492.988 471.668L497.563 472.911H492.988C490.548 472.911 487.04 472.445 485.363 471.668L482.313 470.269L485.363 470.425C487.04 470.425 490.548 471.046 492.988 471.668Z" fill="black"/>
<path d="M318.375 460.789C318.375 461.566 319.137 462.343 320.052 462.343C320.967 462.343 320.51 463.431 319.29 464.83C317.917 466.073 316.85 467.783 316.85 468.404C316.85 470.735 323.865 475.553 326.457 475.087C331.337 474.154 359.855 479.594 382.425 485.965C413.23 494.668 420.397 496.533 428.175 498.087C434.58 499.33 443.882 502.128 473.01 511.608C479.72 513.783 486.582 515.648 488.26 515.959C490.09 516.114 494.055 517.513 497.41 518.912C500.612 520.31 504.577 521.398 506.255 521.398C510.982 521.398 508.847 516.27 502.9 513.317C496.037 509.898 452.117 494.979 448.762 494.979C447.39 494.979 439.917 492.959 432.292 490.472C410.332 483.479 402.25 481.303 392.032 479.438C386.847 478.506 379.375 476.796 375.257 475.553C371.292 474.465 358.635 471.512 347.35 469.337C332.862 466.384 326 464.208 324.17 462.188C321.425 459.08 318.375 458.303 318.375 460.789ZM335.912 469.337C361.837 475.087 360.312 474.776 389.287 481.769C421.922 489.695 446.17 496.533 472.4 505.236C493.597 512.385 492.835 512.074 491.92 513.006C491.462 513.317 485.667 511.918 479.11 509.898C465.69 505.547 428.48 494.824 416.737 491.871C412.62 490.783 400.877 487.675 390.812 484.877C367.48 478.35 354.06 475.242 339.725 473.222C323.255 470.735 321.425 470.269 321.425 468.56C321.425 466.539 323.407 466.539 335.912 469.337ZM503.662 516.736C505.645 517.669 505.95 518.135 504.425 518.135C503.205 518.135 501.07 517.513 499.85 516.736C497.105 514.871 499.545 514.871 503.662 516.736Z" fill="black"/>
<path d="M216.963 488.141C218.335 489.54 219.708 490.317 220.165 489.851C221.538 488.452 219.25 485.655 216.81 485.655C214.828 485.655 214.828 485.965 216.963 488.141Z" fill="black"/>
<path d="M350.4 510.209C350.4 514.094 351.315 514.871 358.483 517.513C370.988 522.02 412.163 540.824 430.005 550.149C439.003 554.811 447.543 558.696 448.763 558.696C453.338 558.696 450.593 551.858 444.645 548.595C441.595 546.885 434.123 542.689 427.87 539.115C416.28 532.432 396.913 523.263 386.238 519.378C382.883 518.135 374.038 514.56 366.718 511.452C359.398 508.344 352.688 505.858 351.773 505.858C351.01 505.858 350.4 507.878 350.4 510.209ZM381.51 520.777C387.305 523.729 393.1 526.061 394.32 526.061C397.98 526.061 448 552.325 448 554.345C448 554.811 440.985 551.703 432.445 547.196C423.753 542.845 412.925 537.561 408.35 535.385C403.775 533.365 394.32 529.013 387.305 525.75C380.29 522.486 374.19 519.844 373.58 519.844C370.225 519.844 351.925 511.297 351.925 509.587C351.925 507.412 364.125 511.918 381.51 520.777Z" fill="black"/>
<path d="M115.245 581.541C112.805 581.852 110.975 582.785 110.975 583.406C110.975 584.183 108.382 587.602 105.332 591.021C97.25 599.569 85.8125 613.555 85.8125 614.488C85.8125 614.954 85.2025 616.353 84.44 617.596C83.3725 619.305 83.83 619.616 86.4225 618.839C89.32 618.062 89.625 618.373 87.795 620.549C86.7275 621.947 82.61 626.61 78.645 630.806C74.5275 634.846 71.7825 638.887 72.24 639.819C72.6975 640.596 71.935 642.617 70.41 644.326C69.0375 645.88 68.1225 647.59 68.58 648.056C69.6475 649.299 74.375 647.279 74.375 645.569C74.375 644.792 74.985 644.171 75.9 644.171C76.6625 644.171 74.8325 647.745 71.7825 652.252C62.6325 665.306 45.4 699.03 45.4 704.158C45.4 705.557 42.35 711.462 38.5375 717.213C34.2675 723.74 31.98 728.713 32.59 730.267C33.0475 731.665 32.59 734.307 31.37 736.328C28.7775 740.368 22.525 758.085 22.525 761.504C22.525 762.747 19.78 769.274 16.425 776.112C10.02 789.166 8.49501 795.383 12.6125 791.808C15.815 789.166 15.51 790.565 11.545 797.403C9.71501 800.511 8.03751 806.261 7.88501 810.302C7.58001 814.187 6.05501 824.755 4.37751 833.769C1.93751 846.201 1.17501 857.235 0.870006 880.391C0.717506 897.02 0.870006 913.182 1.48001 916.135C1.93751 919.088 2.39501 922.817 2.54751 924.216C2.70001 925.77 3.46251 927.013 4.37751 927.013C5.59751 927.013 5.75001 923.905 5.14001 916.446C3.76751 903.081 3.61501 896.243 4.53001 890.492C4.98751 887.851 4.83501 885.053 4.22501 884.276C3.61501 883.344 4.37751 876.35 5.90251 868.735C9.10501 852.418 9.25751 850.397 7.27501 851.64C4.83501 853.195 5.44501 845.735 8.64751 835.478C10.1725 830.194 11.24 824.755 10.7825 823.201C10.4775 821.647 12.155 815.12 14.7475 808.592C17.1875 802.065 19.17 795.538 19.0175 793.829C19.0175 792.275 21.4575 786.525 24.8125 781.241C28.015 775.957 30.15 771.139 29.6925 770.673C29.235 770.207 26.3375 772.693 23.135 776.112C20.085 779.687 17.1875 782.173 16.5775 781.707C16.12 781.241 16.425 780.308 17.34 779.687C19.6275 777.977 32.1325 749.382 31.98 746.118C31.8275 744.409 34.5725 737.882 37.775 731.51C41.13 724.983 43.875 718.611 43.875 717.213C43.875 714.571 51.805 702.138 55.16 699.651C56.2275 698.874 55.465 698.564 53.4825 699.03C51.5 699.496 49.975 699.496 49.975 699.185C49.975 697.476 57.7525 683.023 62.785 675.408C65.835 670.901 68.275 666.549 68.275 665.772C68.275 664.995 70.5625 663.441 73.3075 662.043C79.865 658.935 88.2525 653.961 90.235 651.941C90.9975 651.164 92.98 650.387 94.505 650.387C97.25 650.387 108.382 660.799 112.347 667.016C115.092 671.056 119.362 669.502 120.735 663.908C121.65 659.712 115.397 618.218 113.262 614.643C111.432 611.69 101.52 614.488 94.9625 619.772L89.015 624.745L93.285 618.839C97.7075 613.089 97.555 612.467 91.9125 612.934C89.1675 613.089 89.1675 612.934 92.675 609.981C102.587 601.434 110.365 593.352 109.907 591.954C109.602 591.021 112.195 588.845 115.55 586.825C118.752 584.96 121.955 582.785 122.412 582.008C123.327 580.453 122.717 580.453 115.245 581.541ZM113.262 623.501C113.872 627.697 114.94 633.448 115.702 636.4C117.99 645.569 119.21 667.482 117.38 667.482C115.55 667.482 110.06 660.799 108.687 656.914C108.23 655.516 105.027 652.252 101.52 649.765C94.505 644.792 94.2 644.948 79.1025 654.428L72.24 658.624L75.595 653.961C77.425 651.32 78.95 648.522 78.95 647.745C78.95 647.123 80.78 643.704 83.0675 640.286L87.185 634.069L83.0675 636.867C80.9325 638.265 78.645 639.508 78.1875 639.508C76.3575 639.508 82.7625 631.893 84.745 631.738C85.66 631.738 86.575 630.961 86.575 630.184C86.575 629.252 87.3375 628.63 88.405 628.63C89.4725 628.63 91.9125 626.92 94.0475 624.9C98.775 620.238 106.247 616.197 109.755 616.197C111.585 616.197 112.5 618.062 113.262 623.501Z" fill="black"/>
<path d="M849.837 634.38C850.447 637.644 851.362 640.907 852.125 641.84C854.107 644.637 855.327 651.941 853.65 651.941C851.667 651.941 851.667 657.691 853.65 658.934C854.565 659.401 855.175 662.975 855.175 666.705C855.175 676.029 862.19 698.564 865.24 698.564C867.375 698.564 867.222 694.834 864.325 686.753C863.562 685.043 863.715 680.536 864.325 676.651C865.392 671.212 864.935 667.171 861.732 656.603C859.597 649.299 857.462 641.529 857.157 639.042C856.7 636.711 855.785 634.846 855.175 634.846C854.412 634.846 853.345 633.448 852.887 631.738C851.057 626.143 848.617 628.319 849.837 634.38Z" fill="black"/>
<path d="M188.75 665.462C183.107 666.549 165.417 680.847 159.165 689.55C150.472 701.361 151.082 701.983 168.62 700.739L183.565 699.651L188.902 704.469C191.8 706.956 197.595 715.192 201.712 722.496C208.117 733.686 209.947 735.706 213.15 735.551C215.285 735.551 215.895 735.24 214.522 734.774C213.15 734.463 211.167 732.287 209.947 729.956C205.067 720.01 191.037 699.651 187.682 697.476C184.937 695.611 181.735 695.3 174.567 695.922C169.382 696.388 163.587 697.32 161.757 697.942C155.505 699.807 157.792 695.145 167.705 685.82C173.042 680.847 177.77 676.806 178.532 676.806C179.142 676.806 182.345 674.942 185.7 672.766C194.392 666.86 201.102 666.705 206.135 671.989C209.337 675.408 210.252 678.36 211.625 690.016C212.387 697.787 213.15 709.442 213.15 715.969C213.15 722.496 213.912 728.402 214.675 728.868C216.81 730.111 216.657 707.888 214.522 690.016C212.845 675.874 209.337 667.171 204.61 665.306C202.017 664.218 194.697 664.374 188.75 665.462Z" fill="black"/>
<path d="M865.24 720.631C865.85 729.49 867.223 739.125 868.29 742.078C870.425 748.139 870.73 746.74 870.578 732.753C870.273 715.503 868.595 704.78 866.46 704.78C864.63 704.78 864.478 707.733 865.24 720.631Z" fill="black"/>
<path d="M296.873 749.693C286.655 752.956 276.895 760.571 268.05 772.382L261.493 781.085L265.153 783.727C269.423 786.835 268.813 786.68 283.605 786.991L295.195 787.146L299.923 793.673C305.718 801.599 311.665 805.795 317.46 805.795H321.883L320.968 793.362C319.9 779.065 315.02 761.504 310.14 754.2C306.633 748.76 303.43 747.673 296.873 749.693ZM306.633 755.754C309.988 759.484 315.173 774.869 316.85 785.592C317.46 790.254 318.528 796.004 319.138 798.336C320.053 802.221 319.748 802.687 316.698 802.687C312.123 802.687 307.395 798.802 303.888 792.275C300.075 785.747 295.5 783.883 279.945 782.639C272.625 782.173 266.373 781.241 265.915 780.774C265 779.842 279.183 765.078 286.655 759.328C294.89 752.646 302.668 751.247 306.633 755.754Z" fill="black"/>
<path d="M395.235 778.599C394.32 783.572 395.082 787.146 396.76 785.437C398.437 783.727 399.352 773.159 397.98 773.159C397.065 773.159 395.845 775.646 395.235 778.599Z" fill="black"/>
<path d="M874.085 775.49C874.542 777.2 875.915 789.788 877.287 803.464C878.66 817.14 880.185 830.349 880.49 832.991C881.252 837.964 883.235 885.675 883.387 901.837C883.387 907.121 883.845 911.472 884.607 911.472C885.98 911.472 885.827 913.182 886.285 877.283C886.59 860.654 886.285 846.201 885.522 845.424C884.912 844.492 883.997 837.187 883.54 829.106C883.082 821.025 882.167 807.66 881.405 799.579C880.49 791.497 879.727 783.727 879.727 782.484C879.575 781.241 878.05 778.443 876.372 776.268C873.78 773.004 873.475 772.849 874.085 775.49Z" fill="black"/>
<path d="M397.065 789.633C395.54 793.673 395.997 802.376 397.827 803.619C398.742 804.241 399.047 806.728 398.59 809.525C397.522 815.586 399.047 824.755 400.877 823.512C402.86 822.268 402.555 804.241 400.572 804.241C398.895 804.241 399.047 801.599 401.64 791.342C402.402 788.234 402.097 787.146 400.267 787.146C399.047 787.146 397.522 788.234 397.065 789.633Z" fill="black"/>
<path d="M400.115 828.64C398.59 834.701 397.523 863.296 398.895 863.296C399.658 863.296 400.725 858.945 401.183 853.505C401.64 848.221 402.555 839.829 403.165 834.856C403.928 828.951 403.623 825.998 402.555 825.998C401.64 825.998 400.573 827.241 400.115 828.64Z" fill="black"/>
<path d="M400.725 866.56C400.725 867.492 399.048 870.289 396.913 872.931C392.948 877.749 391.88 885.675 394.93 887.54C395.998 888.317 396.303 887.54 395.845 885.364C395.235 883.188 396.455 879.458 399.353 874.952C404.08 867.492 404.69 864.85 402.25 864.85C401.488 864.85 400.725 865.627 400.725 866.56Z" fill="black"/>
<path d="M397.828 886.918C392.033 893.134 390.05 898.729 391.118 906.189C391.575 909.918 392.49 913.027 393.1 913.027C395.083 913.027 397.523 902.303 395.693 901.682C393.71 901.06 396.76 892.202 400.42 887.695C403.928 883.654 401.488 882.722 397.828 886.918Z" fill="black"/>
<path d="M396.455 913.337C394.32 915.513 394.015 925.459 395.998 925.459C397.065 925.459 399.658 912.871 398.59 911.939C398.438 911.628 397.37 912.405 396.455 913.337Z" fill="black"/>
<path d="M394.93 934.007C392.795 938.824 392.642 941 394.32 941C395.692 941 399.2 934.162 399.2 931.675C399.2 928.723 396.607 930.121 394.93 934.007Z" fill="black"/>
</svg>
